<svg xmlns="http://www.w3.org/2000/svg" viewBox="0 0 700 460" style="max-width:100%;height:auto;font-family:system-ui,-apple-system,'Segoe UI',Roboto,sans-serif"><rect width="700" height="460" fill="#fafbfc" rx="12"/><text x="350" y="30" font-size="18" fill="#6366f1" text-anchor="middle" font-weight="700">国产大模型生态</text><circle cx="350" cy="240" r="55" fill="#6366f112" stroke="#6366f1" stroke-width="2"/><text x="350" y="235" font-size="13" fill="#6366f1" text-anchor="middle" font-weight="700">国产大模型</text><text x="350" y="252" font-size="13" fill="#6366f1" text-anchor="middle" font-weight="700">生态</text><line x1="350" y1="240" x2="350" y2="90" stroke="#f59e0b40" stroke-width="1.5"/><rect x="295" y="62" width="110" height="56" rx="8" fill="#f59e0b10" stroke="#f59e0b" stroke-width="1.5"/><text x="350" y="84" font-size="13" fill="#f59e0b" text-anchor="middle" font-weight="700">DeepSeek</text><text x="350" y="104" font-size="10" fill="#64748b" text-anchor="middle" font-weight="400">V3 / R1</text><line x1="350" y1="240" x2="540" y2="160" stroke="#7c3aed40" stroke-width="1.5"/><rect x="485" y="132" width="110" height="56" rx="8" fill="#7c3aed10" stroke="#7c3aed" stroke-width="1.5"/><text x="540" y="154" font-size="13" fill="#7c3aed" text-anchor="middle" font-weight="700">Qwen</text><text x="540" y="174" font-size="10" fill="#64748b" text-anchor="middle" font-weight="400">通义千问</text><line x1="350" y1="240" x2="540" y2="320" stroke="#10b98140" stroke-width="1.5"/><rect x="485" y="292" width="110" height="56" rx="8" fill="#10b98110" stroke="#10b981" stroke-width="1.5"/><text x="540" y="314" font-size="13" fill="#10b981" text-anchor="middle" font-weight="700">GLM</text><text x="540" y="334" font-size="10" fill="#64748b" text-anchor="middle" font-weight="400">智谱 ChatGLM</text><line x1="350" y1="240" x2="350" y2="390" stroke="#ef444440" stroke-width="1.5"/><rect x="295" y="362" width="110" height="56" rx="8" fill="#ef444410" stroke="#ef4444" stroke-width="1.5"/><text x="350" y="384" font-size="13" fill="#ef4444" text-anchor="middle" font-weight="700">文心一言</text><text x="350" y="404" font-size="10" fill="#64748b" text-anchor="middle" font-weight="400">ERNIE / Paddle</text><line x1="350" y1="240" x2="160" y2="320" stroke="#06b6d440" stroke-width="1.5"/><rect x="105" y="292" width="110" height="56" rx="8" fill="#06b6d410" stroke="#06b6d4" stroke-width="1.5"/><text x="160" y="314" font-size="13" fill="#06b6d4" text-anchor="middle" font-weight="700">月之暗面</text><text x="160" y="334" font-size="10" fill="#64748b" text-anchor="middle" font-weight="400">Kimi</text><line x1="350" y1="240" x2="160" y2="160" stroke="#8b5cf640" stroke-width="1.5"/><rect x="105" y="132" width="110" height="56" rx="8" fill="#8b5cf610" stroke="#8b5cf6" stroke-width="1.5"/><text x="160" y="154" font-size="13" fill="#8b5cf6" text-anchor="middle" font-weight="700">豆包</text><text x="160" y="174" font-size="10" fill="#64748b" text-anchor="middle" font-weight="400">字节跳动</text></svg>