<svg xmlns="http://www.w3.org/2000/svg" viewBox="0 0 820 520" style="max-width:100%;height:auto;font-family:system-ui,-apple-system,'Segoe UI',Roboto,sans-serif"><rect width="820" height="520" fill="#fafbfc" rx="12"/><text x="410" y="32" font-size="20" fill="#6366f1" text-anchor="middle" font-weight="700">20 周学习路线</text><text x="410" y="52" font-size="12" fill="#64748b" text-anchor="middle" font-weight="400">总时长 300-350 小时</text><text x="140" y="72" font-size="10" fill="#64748b" text-anchor="middle" font-weight="400">W0</text><line x1="140" y1="80" x2="140" y2="508" stroke="#e2e8f0" stroke-width="1" stroke-dasharray="4,4"/><text x="204" y="72" font-size="10" fill="#64748b" text-anchor="middle" font-weight="400">W2</text><text x="268" y="72" font-size="10" fill="#64748b" text-anchor="middle" font-weight="400">W4</text><line x1="268" y1="80" x2="268" y2="508" stroke="#e2e8f0" stroke-width="1" stroke-dasharray="4,4"/><text x="332" y="72" font-size="10" fill="#64748b" text-anchor="middle" font-weight="400">W6</text><text x="396" y="72" font-size="10" fill="#64748b" text-anchor="middle" font-weight="400">W8</text><line x1="396" y1="80" x2="396" y2="508" stroke="#e2e8f0" stroke-width="1" stroke-dasharray="4,4"/><text x="460" y="72" font-size="10" fill="#64748b" text-anchor="middle" font-weight="400">W10</text><text x="524" y="72" font-size="10" fill="#64748b" text-anchor="middle" font-weight="400">W12</text><line x1="524" y1="80" x2="524" y2="508" stroke="#e2e8f0" stroke-width="1" stroke-dasharray="4,4"/><text x="588" y="72" font-size="10" fill="#64748b" text-anchor="middle" font-weight="400">W14</text><text x="652" y="72" font-size="10" fill="#64748b" text-anchor="middle" font-weight="400">W16</text><line x1="652" y1="80" x2="652" y2="508" stroke="#e2e8f0" stroke-width="1" stroke-dasharray="4,4"/><text x="716" y="72" font-size="10" fill="#64748b" text-anchor="middle" font-weight="400">W18</text><text x="780" y="72" font-size="10" fill="#64748b" text-anchor="middle" font-weight="400">W20</text><line x1="780" y1="80" x2="780" y2="508" stroke="#e2e8f0" stroke-width="1" stroke-dasharray="4,4"/><rect x="140" y="88" width="96" height="24" rx="6" fill="#6366f120" stroke="#6366f1" stroke-width="1.5"/><text x="188" y="104" font-size="11" fill="#6366f1" text-anchor="middle" font-weight="600">30-40h</text><text x="130" y="104" font-size="13" fill="#1e293b" text-anchor="end" font-weight="500">AI 基础理论</text><rect x="204" y="126" width="80" height="24" rx="6" fill="#7c3aed20" stroke="#7c3aed" stroke-width="1.5"/><text x="244" y="142" font-size="11" fill="#7c3aed" text-anchor="middle" font-weight="600">30-35h</text><text x="130" y="142" font-size="13" fill="#1e293b" text-anchor="end" font-weight="500">Prompt & FC</text><rect x="268" y="164" width="48" height="24" rx="6" fill="#8b5cf620" stroke="#8b5cf6" stroke-width="1.5"/><text x="292" y="180" font-size="11" fill="#8b5cf6" text-anchor="middle" font-weight="600">15-20h</text><text x="130" y="180" font-size="13" fill="#1e293b" text-anchor="end" font-weight="500">工程基建</text><rect x="300" y="202" width="96" height="24" rx="6" fill="#a78bfa20" stroke="#a78bfa" stroke-width="1.5"/><text x="348" y="218" font-size="11" fill="#a78bfa" text-anchor="middle" font-weight="600">35-40h</text><text x="130" y="218" font-size="13" fill="#1e293b" text-anchor="end" font-weight="500">RAG 深度攻坚</text><rect x="364" y="240" width="128" height="24" rx="6" fill="#6366f120" stroke="#6366f1" stroke-width="1.5"/><text x="428" y="256" font-size="11" fill="#6366f1" text-anchor="middle" font-weight="600">40-50h</text><text x="130" y="256" font-size="13" fill="#1e293b" text-anchor="end" font-weight="500">Agent 架构</text><rect x="428" y="278" width="112" height="24" rx="6" fill="#7c3aed20" stroke="#7c3aed" stroke-width="1.5"/><text x="484" y="294" font-size="11" fill="#7c3aed" text-anchor="middle" font-weight="600">35-40h</text><text x="130" y="294" font-size="13" fill="#1e293b" text-anchor="end" font-weight="500">框架实战</text><rect x="524" y="316" width="48" height="24" rx="6" fill="#8b5cf620" stroke="#8b5cf6" stroke-width="1.5"/><text x="548" y="332" font-size="11" fill="#8b5cf6" text-anchor="middle" font-weight="600">15-20h</text><text x="130" y="332" font-size="13" fill="#1e293b" text-anchor="end" font-weight="500">MCP & A2A</text><rect x="556" y="354" width="48" height="24" rx="6" fill="#a78bfa20" stroke="#a78bfa" stroke-width="1.5"/><text x="580" y="370" font-size="11" fill="#a78bfa" text-anchor="middle" font-weight="600">15-20h</text><text x="130" y="370" font-size="13" fill="#1e293b" text-anchor="end" font-weight="500">多模态</text><rect x="588" y="392" width="64" height="24" rx="6" fill="#6366f120" stroke="#6366f1" stroke-width="1.5"/><text x="620" y="408" font-size="11" fill="#6366f1" text-anchor="middle" font-weight="600">20-25h</text><text x="130" y="408" font-size="13" fill="#1e293b" text-anchor="end" font-weight="500">部署优化</text><rect x="652" y="430" width="48" height="24" rx="6" fill="#7c3aed20" stroke="#7c3aed" stroke-width="1.5"/><text x="676" y="446" font-size="11" fill="#7c3aed" text-anchor="middle" font-weight="600">15-20h</text><text x="130" y="446" font-size="13" fill="#1e293b" text-anchor="end" font-weight="500">安全 & 可观测</text><rect x="684" y="468" width="96" height="24" rx="6" fill="#f59e0b20" stroke="#f59e0b" stroke-width="1.5"/><text x="732" y="484" font-size="11" fill="#f59e0b" text-anchor="middle" font-weight="600">50-60h</text><text x="130" y="484" font-size="13" fill="#1e293b" text-anchor="end" font-weight="500">面试准备</text></svg>