<svg xmlns="http://www.w3.org/2000/svg" viewBox="0 0 860 160" style="max-width:100%;height:auto;font-family:system-ui,-apple-system,'Segoe UI',Roboto,sans-serif"><rect width="860" height="160" fill="#fafbfc" rx="12"/><text x="430" y="30" font-size="16" fill="#6366f1" text-anchor="middle" font-weight="700">RAG 全链路流程</text><rect x="20" y="55" width="90" height="50" rx="8" fill="#6366f112" stroke="#6366f1" stroke-width="1.5"/><text x="65" y="78" font-size="12" fill="#6366f1" text-anchor="middle" font-weight="700">文档加载</text><text x="65" y="94" font-size="9" fill="#64748b" text-anchor="middle" font-weight="400">PDF/HTML/MD</text><rect x="130" y="55" width="90" height="50" rx="8" fill="#7c3aed12" stroke="#7c3aed" stroke-width="1.5"/><text x="175" y="78" font-size="12" fill="#7c3aed" text-anchor="middle" font-weight="700">分块</text><text x="175" y="94" font-size="9" fill="#64748b" text-anchor="middle" font-weight="400">Chunk Split</text><rect x="240" y="55" width="90" height="50" rx="8" fill="#8b5cf612" stroke="#8b5cf6" stroke-width="1.5"/><text x="285" y="78" font-size="12" fill="#8b5cf6" text-anchor="middle" font-weight="700">嵌入</text><text x="285" y="94" font-size="9" fill="#64748b" text-anchor="middle" font-weight="400">Embedding</text><rect x="350" y="55" width="90" height="50" rx="8" fill="#10b98112" stroke="#10b981" stroke-width="1.5"/><text x="395" y="78" font-size="12" fill="#10b981" text-anchor="middle" font-weight="700">向量存储</text><text x="395" y="94" font-size="9" fill="#64748b" text-anchor="middle" font-weight="400">Vector DB</text><rect x="460" y="55" width="90" height="50" rx="8" fill="#06b6d412" stroke="#06b6d4" stroke-width="1.5"/><text x="505" y="78" font-size="12" fill="#06b6d4" text-anchor="middle" font-weight="700">检索</text><text x="505" y="94" font-size="9" fill="#64748b" text-anchor="middle" font-weight="400">Retrieval</text><rect x="570" y="55" width="90" height="50" rx="8" fill="#f59e0b12" stroke="#f59e0b" stroke-width="1.5"/><text x="615" y="78" font-size="12" fill="#f59e0b" text-anchor="middle" font-weight="700">重排</text><text x="615" y="94" font-size="9" fill="#64748b" text-anchor="middle" font-weight="400">Reranking</text><rect x="680" y="55" width="90" height="50" rx="8" fill="#ef444412" stroke="#ef4444" stroke-width="1.5"/><text x="725" y="78" font-size="12" fill="#ef4444" text-anchor="middle" font-weight="700">生成</text><text x="725" y="94" font-size="9" fill="#64748b" text-anchor="middle" font-weight="400">LLM Output</text><path d="M460,55 Q460,42 460,80" fill="none" stroke="#f59e0b" stroke-width="1.5" stroke-dasharray="4,3"/><text x="460" y="48" font-size="10" fill="#f59e0b" text-anchor="middle" font-weight="500">用户 Query</text></svg>