<svg xmlns="http://www.w3.org/2000/svg" viewBox="0 0 720 360" style="max-width:100%;height:auto;font-family:system-ui,-apple-system,'Segoe UI',Roboto,sans-serif"><rect width="720" height="360" fill="#fafbfc" rx="12"/><text x="360" y="36" font-size="18" fill="#6366f1" text-anchor="middle" font-weight="700">Transformer 三大架构分支</text><rect x="280" y="55" width="160" height="44" rx="8" fill="#6366f115" stroke="#6366f1" stroke-width="1.5"/><text x="360" y="82" font-size="15" fill="#6366f1" text-anchor="middle" font-weight="700">Transformer</text><rect x="30" y="140" width="180" height="70" rx="8" fill="#06b6d412" stroke="#06b6d4" stroke-width="1.5"/><text x="120" y="165" font-size="14" fill="#06b6d4" text-anchor="middle" font-weight="700">Encoder-only</text><text x="120" y="185" font-size="10" fill="#64748b" text-anchor="middle" font-weight="400">BERT · RoBERTa · DeBERTa</text><rect x="35" y="225" width="170" height="32" rx="6" fill="#fafbfc" stroke="#e2e8f0" stroke-width="1.5"/><text x="120" y="246" font-size="11" fill="#64748b" text-anchor="middle" font-weight="400">文本理解/分类/NER</text><rect x="270" y="140" width="180" height="70" rx="8" fill="#10b98112" stroke="#10b981" stroke-width="1.5"/><text x="360" y="165" font-size="14" fill="#10b981" text-anchor="middle" font-weight="700">Decoder-only</text><text x="360" y="185" font-size="10" fill="#64748b" text-anchor="middle" font-weight="400">GPT · LLaMA · DeepSeek</text><rect x="275" y="225" width="170" height="32" rx="6" fill="#fafbfc" stroke="#e2e8f0" stroke-width="1.5"/><text x="360" y="246" font-size="11" fill="#64748b" text-anchor="middle" font-weight="400">文本生成/对话/代码</text><rect x="510" y="140" width="180" height="70" rx="8" fill="#f59e0b12" stroke="#f59e0b" stroke-width="1.5"/><text x="600" y="165" font-size="14" fill="#f59e0b" text-anchor="middle" font-weight="700">Encoder-Decoder</text><text x="600" y="185" font-size="10" fill="#64748b" text-anchor="middle" font-weight="400">T5 · BART · mBART</text><rect x="515" y="225" width="170" height="32" rx="6" fill="#fafbfc" stroke="#e2e8f0" stroke-width="1.5"/><text x="600" y="246" font-size="11" fill="#64748b" text-anchor="middle" font-weight="400">翻译/摘要/语音</text><rect x="45" y="300" width="110" height="30" rx="6" fill="#6366f108" stroke="#e2e8f0" stroke-width="1.5"/><text x="100" y="320" font-size="11" fill="#64748b" text-anchor="middle" font-weight="500">Self-Attention</text><rect x="185" y="300" width="110" height="30" rx="6" fill="#6366f108" stroke="#e2e8f0" stroke-width="1.5"/><text x="240" y="320" font-size="11" fill="#64748b" text-anchor="middle" font-weight="500">Cross-Attention</text><rect x="325" y="300" width="110" height="30" rx="6" fill="#6366f108" stroke="#e2e8f0" stroke-width="1.5"/><text x="380" y="320" font-size="11" fill="#64748b" text-anchor="middle" font-weight="500">Position Encoding</text><rect x="465" y="300" width="110" height="30" rx="6" fill="#6366f108" stroke="#e2e8f0" stroke-width="1.5"/><text x="520" y="320" font-size="11" fill="#64748b" text-anchor="middle" font-weight="500">Layer Norm</text><rect x="605" y="300" width="110" height="30" rx="6" fill="#6366f108" stroke="#e2e8f0" stroke-width="1.5"/><text x="660" y="320" font-size="11" fill="#64748b" text-anchor="middle" font-weight="500">FFN</text></svg>