<svg xmlns="http://www.w3.org/2000/svg" viewBox="0 0 720 380" style="max-width:100%;height:auto;font-family:system-ui,-apple-system,'Segoe UI',Roboto,sans-serif"><rect width="720" height="380" fill="#fafbfc" rx="12"/><text x="360" y="30" font-size="18" fill="#6366f1" text-anchor="middle" font-weight="700">分布式部署架构</text><rect x="40" y="60" width="640" height="60" rx="8" fill="#10b98106" stroke="#10b98130" stroke-width="1.5"/><text x="70" y="80" font-size="12" fill="#10b981" text-anchor="start" font-weight="700">用户层</text><rect x="125" y="72" width="150" height="36" rx="6" fill="#10b98112" stroke="#10b981" stroke-width="1.5"/><text x="200" y="95" font-size="11" fill="#10b981" text-anchor="middle" font-weight="500">Web App</text><rect x="315" y="72" width="150" height="36" rx="6" fill="#10b98112" stroke="#10b981" stroke-width="1.5"/><text x="390" y="95" font-size="11" fill="#10b981" text-anchor="middle" font-weight="500">Mobile SDK</text><rect x="505" y="72" width="150" height="36" rx="6" fill="#10b98112" stroke="#10b981" stroke-width="1.5"/><text x="580" y="95" font-size="11" fill="#10b981" text-anchor="middle" font-weight="500">API Client</text><rect x="40" y="140" width="640" height="60" rx="8" fill="#6366f106" stroke="#6366f130" stroke-width="1.5"/><text x="70" y="160" font-size="12" fill="#6366f1" text-anchor="start" font-weight="700">接入层</text><rect x="125" y="152" width="150" height="36" rx="6" fill="#6366f112" stroke="#6366f1" stroke-width="1.5"/><text x="200" y="175" font-size="11" fill="#6366f1" text-anchor="middle" font-weight="500">Nginx / Gateway</text><rect x="315" y="152" width="150" height="36" rx="6" fill="#6366f112" stroke="#6366f1" stroke-width="1.5"/><text x="390" y="175" font-size="11" fill="#6366f1" text-anchor="middle" font-weight="500">Load Balancer</text><rect x="505" y="152" width="150" height="36" rx="6" fill="#6366f112" stroke="#6366f1" stroke-width="1.5"/><text x="580" y="175" font-size="11" fill="#6366f1" text-anchor="middle" font-weight="500">Rate Limiter</text><rect x="40" y="220" width="640" height="60" rx="8" fill="#8b5cf606" stroke="#8b5cf630" stroke-width="1.5"/><text x="70" y="240" font-size="12" fill="#8b5cf6" text-anchor="start" font-weight="700">推理层</text><rect x="125" y="232" width="150" height="36" rx="6" fill="#8b5cf612" stroke="#8b5cf6" stroke-width="1.5"/><text x="200" y="255" font-size="11" fill="#8b5cf6" text-anchor="middle" font-weight="500">vLLM / TGI</text><rect x="315" y="232" width="150" height="36" rx="6" fill="#8b5cf612" stroke="#8b5cf6" stroke-width="1.5"/><text x="390" y="255" font-size="11" fill="#8b5cf6" text-anchor="middle" font-weight="500">Model Shard 1</text><rect x="505" y="232" width="150" height="36" rx="6" fill="#8b5cf612" stroke="#8b5cf6" stroke-width="1.5"/><text x="580" y="255" font-size="11" fill="#8b5cf6" text-anchor="middle" font-weight="500">Model Shard 2</text><rect x="40" y="300" width="640" height="60" rx="8" fill="#f59e0b06" stroke="#f59e0b30" stroke-width="1.5"/><text x="70" y="320" font-size="12" fill="#f59e0b" text-anchor="start" font-weight="700">基础设施</text><rect x="125" y="312" width="150" height="36" rx="6" fill="#f59e0b12" stroke="#f59e0b" stroke-width="1.5"/><text x="200" y="335" font-size="11" fill="#f59e0b" text-anchor="middle" font-weight="500">K8s / Docker</text><rect x="315" y="312" width="150" height="36" rx="6" fill="#f59e0b12" stroke="#f59e0b" stroke-width="1.5"/><text x="390" y="335" font-size="11" fill="#f59e0b" text-anchor="middle" font-weight="500">GPU Node Pool</text><rect x="505" y="312" width="150" height="36" rx="6" fill="#f59e0b12" stroke="#f59e0b" stroke-width="1.5"/><text x="580" y="335" font-size="11" fill="#f59e0b" text-anchor="middle" font-weight="500">Monitoring</text><rect x="620" y="170" width="80" height="30" rx="6" fill="#06b6d412" stroke="#06b6d4" stroke-width="1.5"/><text x="660" y="190" font-size="10" fill="#06b6d4" text-anchor="middle" font-weight="500">Redis Cache</text><line x1="620" y1="185" x2="560" y2="185" stroke="#06b6d440" stroke-width="1" stroke-dasharray="4,3"/></svg>