<svg xmlns="http://www.w3.org/2000/svg" viewBox="0 0 760 220" style="max-width:100%;height:auto;font-family:system-ui,-apple-system,'Segoe UI',Roboto,sans-serif"><rect width="760" height="220" fill="#fafbfc" rx="12"/><text x="380" y="32" font-size="18" fill="#6366f1" text-anchor="middle" font-weight="700">微调方法演进</text><line x1="95" y1="100" x2="605" y2="100" stroke="#e2e8f0" stroke-width="2"/><circle cx="95" cy="100" r="8" fill="#6366f1"/><rect x="30" y="50" width="130" height="36" rx="8" fill="#6366f115" stroke="#6366f1" stroke-width="1.5"/><text x="95" y="73" font-size="16" fill="#6366f1" text-anchor="middle" font-weight="700">SFT</text><text x="95" y="125" font-size="11" fill="#64748b" text-anchor="middle" font-weight="400">监督微调</text><text x="95" y="141" font-size="11" fill="#64748b" text-anchor="middle" font-weight="400">问答对训练</text><circle cx="265" cy="100" r="8" fill="#7c3aed"/><rect x="200" y="50" width="130" height="36" rx="8" fill="#7c3aed15" stroke="#7c3aed" stroke-width="1.5"/><text x="265" y="73" font-size="16" fill="#7c3aed" text-anchor="middle" font-weight="700">RLHF</text><text x="265" y="125" font-size="11" fill="#64748b" text-anchor="middle" font-weight="400">人类反馈</text><text x="265" y="141" font-size="11" fill="#64748b" text-anchor="middle" font-weight="400">奖励模型+PPO</text><circle cx="435" cy="100" r="8" fill="#8b5cf6"/><rect x="370" y="50" width="130" height="36" rx="8" fill="#8b5cf615" stroke="#8b5cf6" stroke-width="1.5"/><text x="435" y="73" font-size="16" fill="#8b5cf6" text-anchor="middle" font-weight="700">DPO</text><text x="435" y="125" font-size="11" fill="#64748b" text-anchor="middle" font-weight="400">直接偏好优化</text><text x="435" y="141" font-size="11" fill="#64748b" text-anchor="middle" font-weight="400">无需奖励模型</text><circle cx="605" cy="100" r="8" fill="#10b981"/><rect x="540" y="50" width="130" height="36" rx="8" fill="#10b98115" stroke="#10b981" stroke-width="1.5"/><text x="605" y="73" font-size="16" fill="#10b981" text-anchor="middle" font-weight="700">LoRA/QLoRA</text><text x="605" y="125" font-size="11" fill="#64748b" text-anchor="middle" font-weight="400">参数高效微调</text><text x="605" y="141" font-size="11" fill="#64748b" text-anchor="middle" font-weight="400">低成本适配</text></svg>