<svg xmlns="http://www.w3.org/2000/svg" viewBox="0 0 620 480" style="max-width:100%;height:auto;font-family:system-ui,-apple-system,'Segoe UI',Roboto,sans-serif"><rect width="620" height="480" fill="#fafbfc" rx="12"/><text x="310" y="28" font-size="18" fill="#6366f1" text-anchor="middle" font-weight="700">Multi-Agent 协作模式</text><text x="120" y="55" font-size="13" fill="#6366f1" text-anchor="middle" font-weight="600">① 主从模式</text><rect x="85" y="65" width="70" height="32" rx="6" fill="#6366f115" stroke="#6366f1" stroke-width="1.5"/><text x="120" y="86" font-size="12" fill="#6366f1" text-anchor="middle" font-weight="700">Boss</text><rect x="30" y="120" width="40" height="26" rx="5" fill="#8b5cf612" stroke="#8b5cf6" stroke-width="1.5"/><text x="50" y="138" font-size="10" fill="#8b5cf6" text-anchor="middle" font-weight="600">W1</text><rect x="80" y="120" width="40" height="26" rx="5" fill="#8b5cf612" stroke="#8b5cf6" stroke-width="1.5"/><text x="100" y="138" font-size="10" fill="#8b5cf6" text-anchor="middle" font-weight="600">W2</text><rect x="130" y="120" width="40" height="26" rx="5" fill="#8b5cf612" stroke="#8b5cf6" stroke-width="1.5"/><text x="150" y="138" font-size="10" fill="#8b5cf6" text-anchor="middle" font-weight="600">W3</text><text x="430" y="55" font-size="13" fill="#f59e0b" text-anchor="middle" font-weight="600">② 对等模式</text><rect x="340" y="65" width="40" height="32" rx="6" fill="#f59e0b12" stroke="#f59e0b" stroke-width="1.5"/><text x="360" y="86" font-size="12" fill="#f59e0b" text-anchor="middle" font-weight="700">A</text><rect x="410" y="65" width="40" height="32" rx="6" fill="#f59e0b12" stroke="#f59e0b" stroke-width="1.5"/><text x="430" y="86" font-size="12" fill="#f59e0b" text-anchor="middle" font-weight="700">B</text><rect x="480" y="65" width="40" height="32" rx="6" fill="#f59e0b12" stroke="#f59e0b" stroke-width="1.5"/><text x="500" y="86" font-size="12" fill="#f59e0b" text-anchor="middle" font-weight="700">C</text><line x1="380" y1="75" x2="480" y2="75" stroke="#e2e8f040" stroke-width="1" stroke-dasharray="3,3"/><text x="120" y="200" font-size="13" fill="#10b981" text-anchor="middle" font-weight="600">③ 流水线模式</text><rect x="25" y="215" width="50" height="30" rx="6" fill="#10b98112" stroke="#10b981" stroke-width="1.5"/><text x="50" y="235" font-size="11" fill="#10b981" text-anchor="middle" font-weight="600">输入</text><rect x="95" y="215" width="50" height="30" rx="6" fill="#10b98112" stroke="#10b981" stroke-width="1.5"/><text x="120" y="235" font-size="11" fill="#10b981" text-anchor="middle" font-weight="600">处理</text><rect x="165" y="215" width="50" height="30" rx="6" fill="#10b98112" stroke="#10b981" stroke-width="1.5"/><text x="190" y="235" font-size="11" fill="#10b981" text-anchor="middle" font-weight="600">输出</text><text x="430" y="200" font-size="13" fill="#ef4444" text-anchor="middle" font-weight="600">④ 辩论模式</text><rect x="370" y="215" width="50" height="30" rx="6" fill="#ef444412" stroke="#ef4444" stroke-width="1.5"/><text x="395" y="235" font-size="10" fill="#ef4444" text-anchor="middle" font-weight="600">Agent A</text><rect x="440" y="215" width="50" height="30" rx="6" fill="#06b6d412" stroke="#06b6d4" stroke-width="1.5"/><text x="465" y="235" font-size="10" fill="#06b6d4" text-anchor="middle" font-weight="600">Agent B</text><line x1="420" y1="230" x2="440" y2="230" stroke="#64748b" stroke-width="1.5"/><text x="430" y="222" font-size="9" fill="#64748b" text-anchor="middle">↔</text><rect x="390" y="265" width="80" height="28" rx="6" fill="#6366f110" stroke="#6366f1" stroke-width="1.5"/><text x="430" y="284" font-size="11" fill="#6366f1" text-anchor="middle" font-weight="600">Judge</text><text x="310" y="340" font-size="14" fill="#1e293b" text-anchor="middle" font-weight="600">模式对比</text><rect x="65" y="346" width="130" height="24" rx="4" fill="#6366f110" stroke="#e2e8f0" stroke-width="1.5"/><text x="130" y="362" font-size="11" fill="#6366f1" text-anchor="middle" font-weight="600">模式</text><rect x="220" y="346" width="160" height="24" rx="4" fill="#6366f110" stroke="#e2e8f0" stroke-width="1.5"/><text x="300" y="362" font-size="11" fill="#6366f1" text-anchor="middle" font-weight="600">适用场景</text><rect x="415" y="346" width="130" height="24" rx="4" fill="#6366f110" stroke="#e2e8f0" stroke-width="1.5"/><text x="480" y="362" font-size="11" fill="#6366f1" text-anchor="middle" font-weight="600">通信复杂度</text><text x="130" y="390" font-size="11" fill="#64748b" text-anchor="middle" font-weight="400">主从</text><text x="300" y="390" font-size="11" fill="#64748b" text-anchor="middle" font-weight="400">任务分解</text><text x="480" y="390" font-size="11" fill="#64748b" text-anchor="middle" font-weight="400">低</text><text x="130" y="418" font-size="11" fill="#1e293b" text-anchor="middle" font-weight="400">对等</text><text x="300" y="418" font-size="11" fill="#1e293b" text-anchor="middle" font-weight="400">协作决策</text><text x="480" y="418" font-size="11" fill="#1e293b" text-anchor="middle" font-weight="400">中</text><text x="130" y="446" font-size="11" fill="#64748b" text-anchor="middle" font-weight="400">流水线</text><text x="300" y="446" font-size="11" fill="#64748b" text-anchor="middle" font-weight="400">串行处理</text><text x="480" y="446" font-size="11" fill="#64748b" text-anchor="middle" font-weight="400">低</text><text x="130" y="474" font-size="11" fill="#1e293b" text-anchor="middle" font-weight="400">辩论</text><text x="300" y="474" font-size="11" fill="#1e293b" text-anchor="middle" font-weight="400">质量提升</text><text x="480" y="474" font-size="11" fill="#1e293b" text-anchor="middle" font-weight="400">高</text></svg>