<svg xmlns="http://www.w3.org/2000/svg" viewBox="0 0 500 380" style="max-width:100%;height:auto;font-family:system-ui,-apple-system,'Segoe UI',Roboto,sans-serif"><rect width="500" height="380" fill="#fafbfc" rx="12"/><text x="250" y="30" font-size="18" fill="#6366f1" text-anchor="middle" font-weight="700">Agent 安全防御层次</text><circle cx="200" cy="210" r="150" fill="#ef444408" stroke="#ef4444" stroke-width="1.5"/><circle cx="200" cy="210" r="120" fill="#f59e0b08" stroke="#f59e0b" stroke-width="1.5"/><circle cx="200" cy="210" r="90" fill="#eab30808" stroke="#eab308" stroke-width="1.5"/><circle cx="200" cy="210" r="60" fill="#10b98108" stroke="#10b981" stroke-width="1.5"/><circle cx="200" cy="210" r="30" fill="#06b6d408" stroke="#06b6d4" stroke-width="1.5"/><text x="200" y="214" font-size="10" fill="#6366f1" text-anchor="middle" font-weight="700">LLM</text><rect x="370" y="80" width="12" height="12" rx="3" fill="#ef4444" stroke="none" stroke-width="1.5"/><text x="390" y="90" font-size="12" fill="#1e293b" text-anchor="start" font-weight="500">输入过滤</text><text x="390" y="106" font-size="10" fill="#64748b" text-anchor="start" font-weight="400">Prompt注入防护</text><rect x="370" y="128" width="12" height="12" rx="3" fill="#f59e0b" stroke="none" stroke-width="1.5"/><text x="390" y="138" font-size="12" fill="#1e293b" text-anchor="start" font-weight="500">输入输出分离</text><text x="390" y="154" font-size="10" fill="#64748b" text-anchor="start" font-weight="400">数据隔离</text><rect x="370" y="176" width="12" height="12" rx="3" fill="#eab308" stroke="none" stroke-width="1.5"/><text x="390" y="186" font-size="12" fill="#1e293b" text-anchor="start" font-weight="500">输出验证</text><text x="390" y="202" font-size="10" fill="#64748b" text-anchor="start" font-weight="400">结果校验</text><rect x="370" y="224" width="12" height="12" rx="3" fill="#10b981" stroke="none" stroke-width="1.5"/><text x="390" y="234" font-size="12" fill="#1e293b" text-anchor="start" font-weight="500">权限控制</text><text x="390" y="250" font-size="10" fill="#64748b" text-anchor="start" font-weight="400">最小权限</text><rect x="370" y="272" width="12" height="12" rx="3" fill="#06b6d4" stroke="none" stroke-width="1.5"/><text x="390" y="282" font-size="12" fill="#1e293b" text-anchor="start" font-weight="500">沙箱执行</text><text x="390" y="298" font-size="10" fill="#64748b" text-anchor="start" font-weight="400">隔离环境</text><text x="250" y="370" font-size="11" fill="#64748b" text-anchor="middle" font-weight="400">从外到内：防御层层递进</text></svg>